<svg width="1500" height="1500" viewBox="0 0 1500 1500" fill="none" xmlns="http://www.w3.org/2000/svg">
<g clip-path="url(#clip0_6_157)">
<path d="M940.765 697.667C939.321 705.27 937.589 712.795 935.569 720.243C935.35 721.108 935.106 721.96 934.861 722.825H906.771C904.379 722.828 902.085 723.781 900.394 725.475C898.702 727.169 897.751 729.465 897.748 731.861V812.048C896.897 813.635 896.033 815.21 895.17 816.785C890.709 824.917 886.069 832.959 881.325 840.898C803.971 969.924 696.083 1077.9 567.186 1155.28L574.818 1138.04C572.021 1137.84 569.211 1137.65 566.414 1137.45C505.504 1133.28 444.388 1128.66 384.909 1114.96C322.685 1100.61 261.815 1075.74 213.048 1034.5C164.269 993.242 128.51 934.329 123.547 870.587C121.892 848.681 124.104 826.654 130.083 805.516C141.516 764.829 166.499 728.221 202.542 706.561C259.159 672.547 333.011 679.479 392.696 707.774C452.367 736.056 500.941 782.875 548.366 828.88C500.483 746.658 433.814 676.974 353.83 625.548C327.326 608.56 299.198 593.432 276.665 571.423C254.144 549.427 237.528 518.589 241.511 487.338C246.036 451.892 275.028 424.991 304.071 404.247C315.673 395.96 327.648 388.099 339.998 380.87C374.842 360.423 412.535 344.998 452.342 339.279C506.264 331.521 564.506 343.294 605.847 378.817C652.421 418.846 671.525 483.401 669.708 545.154C698.403 503.383 742.657 471.409 792.635 470.054C844.521 468.66 893.842 501.486 919.83 546.484C945.805 591.47 950.471 646.614 940.765 697.667Z" fill="#bac9f5" id="id_101"></path>
<path d="M612.488 871.149C642.878 868.469 670.95 865.338 700.399 856.993C728.944 848.905 756.411 835.365 776.732 813.257C798.588 789.478 810.386 758.596 818.71 727.854C823.351 710.714 827.165 693.335 830.763 675.95C834.667 657.086 838.136 638.14 841.17 619.11C847.208 581.23 851.52 543.127 854.103 504.802C854.415 500.149 854.701 495.496 854.962 490.84C855.123 487.968 850.662 487.977 850.501 490.84C848.379 528.618 844.561 566.249 839.048 603.733C833.607 640.561 826.646 677.229 817.813 713.396C810.331 744.036 800.643 775.154 781.454 800.66C763.459 824.578 737.467 840.208 709.404 849.554C680.847 859.063 650.737 862.86 620.896 865.683C617.235 866.029 616.151 866.359 612.488 866.682C609.651 866.932 609.624 871.401 612.488 871.149L612.488 871.149Z" fill="#ffffff" id="id_102"></path>
<path d="M132.657 808.811C170.999 810.941 208.952 817.638 245.711 828.76C282.487 839.86 317.827 855.263 350.999 874.651C383.052 893.401 412.809 915.835 439.663 941.499C465.725 966.42 488.953 994.153 508.922 1024.19C528.982 1054.31 545.606 1086.58 558.483 1120.4C560.053 1124.54 561.565 1128.7 563.02 1132.88C563.96 1135.58 568.271 1134.42 567.321 1131.7C555.274 1097.16 539.393 1064.08 519.975 1033.09C500.561 1002.1 477.777 973.36 452.039 947.394C425.89 921.025 396.787 897.769 365.309 878.086C299.216 836.86 224.3 811.92 146.713 805.314C142.032 804.922 137.347 804.598 132.657 804.345C129.789 804.188 129.798 808.655 132.657 808.811L132.657 808.811Z" fill="white" id="id_103"></path>
<path d="M341.203 386.105C365.718 393.913 388.956 405.283 410.171 419.853C431.849 434.843 451.621 452.425 469.046 472.21C487.409 493.023 503.735 515.553 517.799 539.489C532.717 564.763 545.676 591.146 556.562 618.405C567.772 646.391 577.201 675.06 584.791 704.24C592.507 733.765 598.533 763.707 602.842 793.92C607.128 823.813 609.723 853.924 610.612 884.11C611.508 912.975 610.656 941.867 608.06 970.628C605.686 997.461 601.35 1024.08 595.088 1050.28C589.526 1073.94 581.689 1097.01 571.685 1119.15C569.367 1124.18 566.908 1129.14 564.308 1134.03C562.959 1136.56 566.808 1138.82 568.159 1136.28C579.215 1115.13 588.043 1092.88 594.501 1069.89C601.746 1044.31 606.998 1018.2 610.209 991.799C613.769 963.157 615.502 934.318 615.399 905.455C615.335 875.134 613.532 844.84 610 814.725C606.467 784.235 601.22 753.967 594.286 724.068C587.369 694.119 578.594 664.631 568.014 635.775C557.815 607.841 545.605 580.686 531.479 554.523C518.024 529.558 502.345 505.86 484.631 483.72C467.809 462.639 448.604 443.581 427.4 426.928C406.954 410.918 384.361 397.868 360.284 388.161C354.4 385.816 348.435 383.695 342.389 381.799C339.644 380.934 338.47 385.244 341.203 386.105H341.203Z" fill="#ffffff" id="id_104"></path>
<path d="M605.769 1163C781.975 1163 924.819 1157.22 924.819 1150.09C924.819 1142.96 781.975 1137.18 605.769 1137.18C429.563 1137.18 286.72 1142.96 286.72 1150.09C286.72 1157.22 429.563 1163 605.769 1163Z" fill="#E6E6E6" id="id_105"></path>
<path d="M887.653 745.788C887.495 746.485 887.392 747.193 887.345 747.905L831.969 779.895L818.509 772.136L804.16 790.946L832.954 811.497L896.13 761.59C898.706 762.545 901.512 762.691 904.174 762.01C906.836 761.329 909.228 759.853 911.032 757.778C912.835 755.702 913.965 753.126 914.271 750.392C914.577 747.658 914.045 744.896 912.744 742.472C911.444 740.049 909.438 738.079 906.993 736.825C904.547 735.571 901.779 735.092 899.055 735.452C896.331 735.812 893.781 736.993 891.744 738.84C889.708 740.686 888.281 743.11 887.653 745.788V745.788Z" fill="#FFB8B8" id="id_106"></path>
<path d="M761.538 765.415L805.14 796.533L824.642 772.05L782.256 737.994C780.433 736.529 778.33 735.452 776.076 734.829C773.822 734.206 771.465 734.051 769.149 734.372C766.833 734.694 764.608 735.485 762.608 736.698C760.608 737.911 758.877 739.52 757.52 741.426V741.426C754.876 745.141 753.814 749.755 754.568 754.254C755.321 758.753 757.828 762.767 761.538 765.415Z" fill="#F9E426" id="id_107"></path>
<path d="M671.532 1120.48L686.821 1124.49L709.547 1067.35L686.984 1061.43L671.532 1120.48Z" fill="#FFB8B8" id="id_108"></path>
<path d="M712.584 1146.44L664.537 1133.84L669.401 1115.25L698.885 1122.98C703.808 1124.28 708.017 1127.47 710.587 1131.87C713.156 1136.27 713.874 1141.51 712.584 1146.44V1146.44V1146.44Z" fill="#eb6811" id="id_109"></path>
<path d="M807.432 1131.38L822.99 1128.6L819.674 1067.18L796.713 1071.29L807.432 1131.38Z" fill="#FFB8B8" id="id_110"></path>
<path d="M855.574 1137.7L806.679 1146.44L803.304 1127.53L833.308 1122.16C835.789 1121.72 838.333 1121.77 840.795 1122.31C843.256 1122.85 845.587 1123.87 847.655 1125.31C849.723 1126.75 851.486 1128.59 852.845 1130.72C854.204 1132.84 855.131 1135.21 855.574 1137.7V1137.7V1137.7Z" fill="#de6718" id="id_111"></path>
<path d="M776.797 679.728C780.63 680.662 783.749 684.574 785.622 689.105C787.35 693.865 788.52 698.81 789.108 703.84C790.58 713.207 791.993 723.348 788.949 732.023C785.382 742.192 775.875 747.517 767.629 745.015C759.383 742.512 752.825 733.118 750.584 722.304C748.544 711.377 749.859 700.088 754.354 689.924C756.696 684.584 759.925 679.657 764.216 677.247C766.321 675.973 768.829 675.544 771.237 676.046C773.645 676.549 775.774 677.945 777.195 679.956" fill="#000000" id="id_112"></path>
<path d="M798.488 849.327L828.107 1114.97L803.644 1124.27L758.526 946.14L695.711 1109.01L668.935 1110.5C668.935 1110.5 705.674 857.072 732.901 851.312L798.488 849.327Z" fill="#2F2E41" id="id_113"></path>
<path d="M773.61 713.629C791.096 713.629 805.271 699.435 805.271 681.925C805.271 664.415 791.096 650.221 773.61 650.221C756.124 650.221 741.948 664.415 741.948 681.925C741.948 699.435 756.124 713.629 773.61 713.629Z" fill="#FFB8B8" id="id_114"></path>
<path d="M787.198 726.93L752.984 722.461C752.984 722.461 730.67 749.274 732.157 795.452C733.645 841.63 728.438 855.781 728.438 855.781L799.777 857.072C789.464 842.873 832.599 761.321 787.198 726.93Z" fill="#ed6a13" id="id_115"></path>
<path d="M805.578 863.526C804.865 863.531 804.153 863.593 803.449 863.71L759.678 817.051L764.141 802.155L742.571 792.473L729.182 825.244L792.157 875.405C791.818 878.135 792.318 880.904 793.589 883.343C794.86 885.782 796.842 887.776 799.273 889.059C801.703 890.342 804.466 890.854 807.194 890.526C809.922 890.199 812.485 889.048 814.544 887.226C816.602 885.404 818.058 882.997 818.718 880.327C819.377 877.656 819.209 874.848 818.236 872.275C817.263 869.702 815.53 867.487 813.269 865.924C811.008 864.361 808.325 863.525 805.578 863.526V863.526Z" fill="#FFB8B8" id="id_116"></path>
<path d="M757.637 745.083L737.364 794.707L765.628 808.114L789.036 759.003C790.043 756.891 790.608 754.594 790.698 752.255C790.788 749.915 790.399 747.582 789.557 745.398C788.715 743.215 787.436 741.226 785.799 739.554C784.162 737.882 782.202 736.563 780.038 735.677V735.677C777.95 734.821 775.715 734.386 773.459 734.396C771.204 734.406 768.972 734.861 766.892 735.734C764.812 736.608 762.924 737.883 761.336 739.487C759.748 741.091 758.491 742.993 757.637 745.083V745.083Z" fill="#ed6313" id="id_117"></path>
<path d="M765.328 710.748C770.289 707.883 770.818 700.969 770.144 695.274C769.47 689.579 768.343 683.23 771.686 678.573C775.676 673.016 783.693 672.905 790.526 672.724C797.359 672.542 805.68 670.539 807.451 663.927C808.621 659.559 806.118 654.871 802.526 652.129C798.934 649.387 794.44 648.175 790.073 647.022C780.302 644.445 770.214 641.846 760.209 643.262C750.3 644.665 741.341 649.919 735.271 657.886C729.2 665.853 726.507 675.893 727.773 685.834C729.392 698.55 731.74 704.103 730.199 709.71C727.327 720.153 714.948 726.862 714.701 737.691C714.508 746.161 721.98 752.695 729.27 756.996C735.052 760.408 741.293 763.303 747.956 764.101C754.62 764.9 761.795 763.371 766.759 758.848C773.161 753.015 774.745 743.269 772.909 734.799C771.073 726.328 766.364 718.806 761.705 711.501" fill="#2F2E41" id="id_118"></path>
<path d="M1364.4 720.243H906.772C903.696 720.248 900.748 721.474 898.573 723.651C896.398 725.829 895.174 728.781 895.17 731.861V1026.17C895.174 1029.25 896.398 1032.2 898.573 1034.38C900.748 1036.56 903.696 1037.78 906.772 1037.79H1364.4C1367.47 1037.78 1370.42 1036.56 1372.6 1034.38C1374.77 1032.2 1376 1029.25 1376 1026.17V731.861C1376 728.781 1374.77 725.829 1372.6 723.651C1370.42 721.474 1367.47 720.248 1364.4 720.243V720.243ZM1373.42 1026.17C1373.42 1028.57 1372.47 1030.86 1370.78 1032.56C1369.08 1034.25 1366.79 1035.2 1364.4 1035.21H906.772C904.379 1035.2 902.086 1034.25 900.394 1032.56C898.702 1030.86 897.751 1028.57 897.748 1026.17V731.861C897.751 729.465 898.702 727.169 900.394 725.475C902.086 723.781 904.379 722.828 906.772 722.825H1364.4C1366.79 722.828 1369.08 723.781 1370.78 725.475C1372.47 727.169 1373.42 729.465 1373.42 731.861V1026.17Z" fill="#3F3D56" id="id_119"></path>
<path d="M1004.45 866.747H932.264C929.359 866.744 926.574 865.587 924.519 863.53C922.465 861.473 921.31 858.684 921.306 855.775V783.488C921.31 780.58 922.465 777.791 924.519 775.734C926.574 773.677 929.359 772.52 932.264 772.516H1004.45C1007.36 772.52 1010.14 773.677 1012.2 775.734C1014.25 777.791 1015.41 780.58 1015.41 783.488V855.775C1015.41 858.684 1014.25 861.473 1012.2 863.53C1010.14 865.587 1007.36 866.744 1004.45 866.747V866.747Z" fill="#eb6811" id="id_120"></path>
<path d="M1340.56 943.564H930.634C928.412 943.564 926.28 942.68 924.709 941.107C923.138 939.533 922.255 937.399 922.255 935.174C922.255 932.948 923.138 930.814 924.709 929.241C926.28 927.667 928.412 926.783 930.634 926.783H1340.56C1342.79 926.783 1344.92 927.667 1346.49 929.241C1348.06 930.814 1348.94 932.948 1348.94 935.174C1348.94 937.399 1348.06 939.533 1346.49 941.107C1344.92 942.68 1342.79 943.564 1340.56 943.564V943.564Z" fill="#CCCCCC" id="id_121"></path>
<path d="M1340.84 902.903H930.909C928.687 902.903 926.556 902.019 924.984 900.445C923.413 898.872 922.53 896.738 922.53 894.512C922.53 892.287 923.413 890.153 924.984 888.58C926.556 887.006 928.687 886.122 930.909 886.122H1340.84C1343.06 886.122 1345.19 887.006 1346.76 888.58C1348.34 890.153 1349.22 892.287 1349.22 894.512C1349.22 896.738 1348.34 898.872 1346.76 900.445C1345.19 902.019 1343.06 902.903 1340.84 902.903V902.903Z" fill="#CCCCCC" id="id_122"></path>
<path d="M1138.45 847.384H1077.87C1075.64 847.384 1073.51 846.5 1071.94 844.927C1070.37 843.353 1069.49 841.219 1069.49 838.994C1069.49 836.769 1070.37 834.635 1071.94 833.061C1073.51 831.488 1075.64 830.604 1077.87 830.604H1138.45C1140.67 830.604 1142.81 831.488 1144.38 833.061C1145.95 834.635 1146.83 836.769 1146.83 838.994C1146.83 841.219 1145.95 843.353 1144.38 844.927C1142.81 846.5 1140.67 847.384 1138.45 847.384V847.384Z" fill="#CCCCCC" id="id_123"></path>
<path d="M1340.84 806.09H1077.87C1075.64 806.09 1073.51 805.206 1071.94 803.633C1070.37 802.059 1069.49 799.925 1069.49 797.7C1069.49 795.474 1070.37 793.34 1071.94 791.767C1073.51 790.193 1075.64 789.309 1077.87 789.309H1340.84C1343.06 789.309 1345.19 790.193 1346.76 791.767C1348.34 793.34 1349.22 795.474 1349.22 797.7C1349.22 799.925 1348.34 802.059 1346.76 803.633C1345.19 805.206 1343.06 806.09 1340.84 806.09V806.09Z" fill="#CCCCCC" id="id_124"></path>
<path d="M1128.14 984.871H930.634C928.412 984.871 926.28 983.987 924.709 982.413C923.138 980.84 922.255 978.706 922.255 976.481C922.255 974.255 923.138 972.121 924.709 970.548C926.28 968.974 928.412 968.09 930.634 968.09H1128.14C1130.36 968.09 1132.49 968.974 1134.06 970.548C1135.64 972.121 1136.52 974.255 1136.52 976.481C1136.52 978.706 1135.64 980.84 1134.06 982.413C1132.49 983.987 1130.36 984.871 1128.14 984.871V984.871Z" fill="#CCCCCC" id="id_125"></path>
<ellipse cx="794.74" cy="686.416" rx="4.90322" ry="4.90909" fill="#2F2E41" id="id_126"></ellipse>
<path d="M1150.9 679.463H1103.78C1102.31 679.461 1100.9 678.896 1099.86 677.89C1098.82 676.884 1098.24 675.52 1098.24 674.098V620.094C1098.24 619.031 1098.67 618.011 1099.45 617.258C1100.23 616.506 1101.28 616.083 1102.38 616.082H1152.23C1153.35 616.083 1154.42 616.513 1155.21 617.277C1156 618.041 1156.44 619.078 1156.44 620.158V674.098C1156.44 675.52 1155.86 676.884 1154.82 677.89C1153.78 678.896 1152.37 679.461 1150.9 679.463ZM1102.38 616.695C1101.45 616.696 1100.56 617.054 1099.9 617.692C1099.24 618.329 1098.87 619.193 1098.87 620.094V674.098C1098.87 675.358 1099.39 676.566 1100.31 677.456C1101.23 678.347 1102.48 678.848 1103.78 678.85H1150.9C1152.2 678.848 1153.45 678.347 1154.37 677.456C1155.29 676.566 1155.81 675.358 1155.81 674.098V620.158C1155.81 619.24 1155.43 618.36 1154.76 617.711C1154.09 617.061 1153.18 616.696 1152.23 616.695H1102.38Z" fill="#3F3D56" id="id_127"></path>
<path d="M1156.44 679.463H1092.11V679.258C1092.12 673.35 1094.47 667.685 1098.66 663.507C1102.84 659.329 1108.52 656.979 1114.44 656.973H1134.11C1140.03 656.979 1145.71 659.329 1149.9 663.507C1154.08 667.685 1156.44 673.35 1156.44 679.258V679.463Z" fill="#F9E426" id="id_128"></path>
<path d="M1127.34 649.817C1136.08 649.817 1143.17 644.325 1143.17 637.55C1143.17 630.774 1136.08 625.282 1127.34 625.282C1118.6 625.282 1111.51 630.774 1111.51 637.55C1111.51 644.325 1118.6 649.817 1127.34 649.817Z" fill="#ed6313" id="id_129"></path>
</g>
<defs>
<clipPath id="clip0_6_157">
<rect width="1253" height="826" fill="white" transform="translate(123 337)" id="id_130"></rect>
</clipPath>
</defs>
</svg>