<?xml version="1.0" ?><svg xmlns="http://www.w3.org/2000/svg" width="243.78833mm" height="166.55472mm" viewBox="0 0 243.78833 166.55472">
    <path d="m 15766.144,-7629.4719 c -1.471,-28.3806 3.154,-376.4215 8.62,-391.7471 5.466,-15.3255 16.083,-29.8942 52.138,-31.8808 36.056,-1.9867 442.335,-14.1903 460.836,-11.8253 18.5,2.365 37.421,6.6221 33.112,32.5431 -4.31,25.921 -2.628,320.3225 -2.628,320.3225 0,0 309.466,105.2922 320.188,115.2253 10.722,9.9332 31.009,38.8814 12.404,44.463 -18.606,5.5815 -474.816,91.291 -492.266,91.8586 -17.449,0.5676 -42.888,-4.0679 -87.878,-19.7718 -44.99,-15.704 -267.84,-117.7796 -282.556,-124.0233 -14.716,-6.2438 -21.549,-14.2849 -21.97,-25.1642 z" fill="none" paint-order="markers stroke fill" transform="translate(437.77135,66.917151) matrix(0.26448183,-0.00732795,0.00732795,0.26448183,-4544.9694,2189.6268)"/>
    <path d="m 16102.562,-7457.6892 c -26.109,-5.842 -74.736,-24.243 -149.212,-56.4639 -166.34,-71.9622 -190.571,-86.7443 -200.099,-122.047 -7.329,-27.1249 -7.552,-326.6362 -0.265,-359.1073 9.566,-42.6345 26.608,-56.75 81.116,-67.1788 84.091,-16.0887 442.663,-26.9696 467.902,-14.1982 5.896,2.9866 14.578,12.0352 19.291,20.1075 8.088,13.8338 8.534,23.1549 7.952,162.1825 -0.378,81.1284 -1.818,153.8691 -3.273,161.647 -2.589,13.7432 -2.064,14.326 18.622,20.705 11.694,3.6103 46.945,15.3782 78.319,26.1514 31.385,10.7727 80.746,26.8898 109.716,35.8151 60.99,18.7952 101.616,37.0009 114.716,51.3944 5.065,5.5711 10.439,18.3145 11.955,28.3189 2.241,14.8414 1.33,18.7359 -4.914,21.1593 -4.218,1.6339 -43.215,10.625 -86.653,19.9805 -43.449,9.3558 -120.465,26.0413 -171.141,37.0798 -50.691,11.0377 -117.206,23.9769 -147.821,28.7531 -50.415,7.8656 -123.76,10.7252 -146.211,5.7007 z m 123.141,-23.3651 c 29.121,-4.8173 118.968,-22.3732 199.676,-39.0134 80.708,-16.6401 161.08,-32.759 178.609,-35.8197 17.526,-3.0607 34.058,-8.2065 36.734,-11.4353 3.67,-4.4202 3.371,-5.87 -1.244,-5.87 -7.117,0 -114.281,21.9156 -117.804,24.0907 -1.319,0.8137 -40.875,7.6705 -87.908,15.2379 -76.055,12.2393 -124.259,21.4821 -188.632,36.1701 -10.863,2.4782 -46.413,4.7176 -78.992,4.9761 -53.949,0.4282 -62.582,-0.6353 -96.545,-11.9032 -94.042,-31.1947 -276.99,-122.1801 -266.589,-132.5798 3.459,-3.4594 56.962,-12.7922 187.601,-32.7284 235.502,-35.9388 271.854,-42.8724 301.027,-47.8429 18.036,-1.0108 15.181,-6.2581 15.895,-22.7474 7.717,-178.2382 8.442,-270.4463 3.703,-288.0321 -9.029,-33.5392 -8.009,-33.3509 -163.915,-30.274 -162.931,3.2156 -290.188,9.4855 -323.474,15.9379 -28.237,5.4742 -37.569,15.1041 -42.618,44.0224 -1.905,10.8612 -3.458,100.3895 -3.458,198.9517 v 162.9308 c -0.226,18.9121 -2.439,14.1745 11.183,25.8944 13.459,11.582 196.781,93.713 267.474,119.8401 60.181,22.2353 86.778,23.8379 169.224,10.1941 z m -421.213,-179.3563 c -5.314,-8.5848 -7.366,-145.0413 -3.61,-238.831 3.236,-80.6449 5.326,-101.3658 10.799,-106.845 8.768,-8.7632 45.902,-12.8024 174.587,-18.9872 144.201,-6.9313 299.607,-9.4914 301.66,-3.762 0.869,2.5145 2.271,71.0017 0.05,150.6507 -2.801,98.6328 -5.734,146.4654 -9.192,149.9868 -2.79,2.8433 -28.774,8.3108 -57.733,12.1493 -28.973,3.8388 -76.365,10.8155 -105.327,15.504 -28.959,4.6889 -77.348,11.5306 -107.513,15.2043 -99.33,12.0952 -124.668,15.5962 -160.184,22.1325 -41.858,7.7072 -40.554,7.6233 -43.536,2.7976 z m 68.016,-17.4554 c 25.153,-4.9425 87.213,-14.1214 137.893,-20.397 50.691,-6.2762 130.091,-18.2231 176.466,-26.5496 29.557,-5.3068 55.916,-10.0005 71.327,-12.7083 18.426,-3.0055 14.508,-0.3894 14.816,-16.4287 0.428,-22.817 0.699,-71.1159 0.699,-126.6657 v -130.9764 c 0.06,-10.7474 2.167,-9.7265 -8.128,-9.4437 l -84.025,2.3078 c -50.691,1.392 -127.702,4.3846 -171.155,6.6497 -43.439,2.2651 -103.983,5.3658 -134.533,6.8897 -52.021,2.5954 -55.718,3.3732 -58.091,12.2268 -1.395,5.2002 -2.563,81.2519 -2.6,169.0035 0,130.803 0.994,159.1453 5.771,157.313 3.197,-1.2288 26.407,-6.2786 51.56,-11.2211 z m 63.965,-67.7072 c -1.265,-46.9843 -2.161,-90.6886 0,-149.3352 2.062,-55.9423 9.845,-58.5087 10.167,-17.6573 0.153,19.4108 0.147,50.5275 0.147,87.0411 0,33.0144 0,58.7321 -0.208,79.1801 -0.463,45.296 -8.799,49.3237 -10.106,0.7713 z m 244.388,-72.2717 c 1.58,-42.8414 1.231,-97.0315 2.066,-115.3146 1.351,-29.5854 7.78,-33.3515 8.432,-0.013 0.668,34.137 -3.336,193.2213 -9.081,193.2213 -2.763,0 -3.273,-27.899 -1.417,-77.8938 z m -199.62,-2.2092 c 3.882,-3.8918 77.972,-10.6907 139.907,-12.8405 48.405,-1.68 57.449,5.9856 12.129,10.2837 -48.461,4.597 -155.891,6.4033 -152.036,2.5568 z m -111.518,-23.1632 c 9.328,-7.0617 28.773,-8.7674 28.773,-2.5243 0,5.263 -11.27,9.2772 -25.587,9.1067 -11.248,-0.136 -11.373,-0.3957 -3.186,-6.5824 z m 104.417,-4.3166 c 8.594,-9.2326 200.262,-20.6347 194.664,-11.5808 -1.255,2.0413 -27.541,5.0294 -58.401,6.6414 -30.864,1.6112 -74.872,4.1631 -97.799,5.67 -22.938,1.5073 -40.244,1.1792 -38.464,-0.7302 z m -106.356,-14.7798 c 0,-4.4383 15.088,-9.1404 29.616,-9.2289 11.358,-0.076 13.198,6.5019 2.937,10.4417 -10.473,4.0177 -32.553,3.1949 -32.553,-1.2128 z m 113.087,-13.4986 c 12.363,-5.3983 108.582,-13.4389 156.336,-13.0655 59.362,0.4642 24.469,7.0719 -54.395,10.3004 -39.821,1.6301 -81.293,3.8971 -92.152,5.037 -15.636,1.6414 -17.677,1.1682 -9.789,-2.2719 z m -110.041,-7.3731 c -5.847,-5.8492 2.487,-10.3589 19.159,-10.3589 17.514,0 23.062,5.6247 10.348,10.5014 -9.094,3.4915 -25.962,3.4099 -29.507,-0.1436 z m 109.145,-14.5829 c 8.285,-3.3582 55.59,-8.7417 136.449,-15.5324 31.57,-2.6513 47.467,2.9118 24.68,8.6332 -12.839,3.2221 -123.999,11.0517 -152.647,10.7513 -13.807,-0.1437 -15.61,-0.968 -8.482,-3.8521 z m -112.191,-12.7544 c 3.617,-2.0992 17.14,-5.1561 30.051,-6.7934 18.263,-2.3153 23.063,-1.7121 21.596,2.7179 -1.243,3.7164 -11.667,6.076 -30.055,6.7933 -17.59,0.6856 -25.701,-0.3364 -21.592,-2.7178 z m -6.58,-17.4815 c 6.13,-5.9301 39.02,-8.1721 41.684,-2.8414 1.293,2.5874 -7.714,4.9421 -21.944,5.7369 -15.613,0.8723 -22.579,-0.1512 -19.74,-2.8955 z m 111.904,-0.3439 c 0,-7.3769 7.325,-9.1363 63.107,-15.1571 52.989,-5.7191 67.294,-3.7387 55.377,7.6657 -8.583,8.2106 -118.484,15.1589 -118.484,7.4914 z m -118.488,-30.8183 c 27.889,-10.2119 266.207,-25.5957 359.478,-23.2052 66.913,1.7148 42.754,5.9154 -46.386,8.0656 -45.494,1.0968 -113.314,4.7758 -150.731,8.1751 -93.381,8.485 -176.228,12.0389 -162.361,6.9645 z m 384.68,-33.0482 c -13.41,-13.4071 5.36,-25.2643 19.045,-15.4858 3.589,2.5646 2.819,8.709 0.152,12.8403 -2.977,4.6119 -11.199,10.6506 -19.197,2.6455 z m -59.301,-3.6865 c -3.991,-4.8046 -3.666,-7.4105 1.444,-11.6504 8.583,-7.1282 20.912,-2.2541 19.034,7.5246 -1.879,9.7648 -13.807,12.1671 -20.478,4.1258 z m -26.967,-5.1595 c 0,-3.6204 2.96,-6.5824 6.58,-6.5824 3.621,0 6.581,2.962 6.581,6.5824 0,3.6208 -2.96,6.5828 -6.581,6.5828 -3.62,0 -6.58,-2.962 -6.58,-6.5828 z m 60.083,3.7762 c -4.093,-4.0952 0.87,-10.3586 8.187,-10.3586 3.481,0 6.331,2.962 6.331,6.5824 0,6.6101 -9.268,9.0214 -14.518,3.7762 z m 43.042,485.2414 c 12.064,-2.4741 78.217,-14.2042 147.008,-26.0674 106.345,-18.339 178.73,-31.9294 222.705,-41.8091 5.435,-1.2204 9.876,-3.8415 9.876,-5.8254 0,-7.8074 -45.815,-27.7739 -120.937,-52.7089 -43.302,-14.3743 -102.089,-34.2051 -130.651,-44.0689 -59.225,-20.4628 -71.762,-21.3313 -135.231,-9.3706 -88.033,16.5906 -317.107,48.7619 -395.415,55.5322 -18.693,1.6173 -34.008,4.4013 -34.008,6.1867 0,1.7851 18.274,11.2335 40.604,20.996 22.314,9.7629 70.208,31.022 106.405,47.243 36.211,16.2214 84.158,34.8167 105.328,44.3014 39.963,17.9044 57.797,14.1056 100.932,12.449 33.785,-1.2979 71.316,-4.3839 83.384,-6.858 z m -147.013,-15.2912 c 0,-6.9029 60.632,-18.8613 188.697,-37.2136 35.002,-5.0158 93.26,-14.8184 129.457,-21.7844 79.91,-15.3759 125.068,-20.4371 125.068,-14.0191 0,2.5214 -11.346,5.8239 -25.228,7.3399 -13.883,1.5156 -48.938,7.4721 -77.897,13.237 -54.572,10.8628 -103.184,19.016 -182.112,30.5454 -84.106,12.2846 -133.712,19.7382 -145.917,21.9254 -6.644,1.1894 -12.068,1.1758 -12.068,-0.038 z m -70.019,-23.7664 c 8.534,-4.9916 160.12,-32.5429 230.192,-41.8349 28.959,-3.8415 81.29,-11.6708 116.296,-17.3994 83.418,-13.6554 118.488,-17.0933 118.488,-11.6179 0,2.3857 -9.38,5.5155 -20.851,6.9559 -11.467,1.44 -45.529,6.6629 -75.693,11.6058 -30.179,4.9432 -82.685,12.7623 -116.697,17.376 -34.019,4.6133 -103.033,15.3097 -153.365,23.7698 -50.344,8.4597 -94.602,15.3214 -98.347,15.2481 -6.131,-0.1247 -6.131,-0.5272 0,-4.1034 z m -46.054,-21.5327 c 8.474,-7.7844 158.88,-36.5409 309.162,-59.1085 93.967,-14.1116 118.484,-16.524 118.484,-11.6583 0,4.6091 1.119,4.3843 -122.876,23.9966 -51.885,8.2061 -140.64,22.9474 -197.216,32.7591 -112.278,19.4725 -113.71,19.6584 -107.554,14.0111 z m -46.185,-19.4408 c 3.22,-3.5656 75.284,-19.0261 138.115,-29.6311 28.97,-4.8881 106.73,-18.7582 172.807,-30.8224 66.082,-12.0639 121.214,-20.8717 122.518,-19.5727 4.913,4.9156 -4.128,7.711 -50.306,15.5509 -26.147,4.4398 -86.041,15.2836 -133.115,24.0975 -172.286,32.2635 -254.71,45.575 -250.019,40.3778 z m -41.163,-20.7742 c 2.763,-2.787 36.336,-9.758 74.6,-15.4907 109.754,-16.4425 195.659,-30.4256 267.05,-43.4688 49.16,-8.9824 84.888,-12.537 76.8,-7.6426 -3.617,2.1914 -36.208,9.3317 -72.408,15.8676 -36.2,6.5356 -84.59,15.6329 -107.516,20.216 -22.927,4.583 -59.46,10.317 -81.181,12.7423 -75.866,8.4695 -149.261,18.1122 -155.792,20.4688 -4.951,1.7884 -5.337,1.1232 -1.553,-2.6926 z" transform="translate(437.77135,66.917151) matrix(0.26448183,-0.00732795,0.00732795,0.26448183,-4544.9694,2189.6268)" fill="#ed6313"/>
</svg>